# xmcd CD database file
#
# Track frame offsets:
#	150
#	8590
#	24115
#	31540
#	45852
#
# Disc length: 634 seconds
#
# Revision: 0
# Processed by: cddbd v1.4PL0 Copyright (c) Steve Scherf et al.
# Submitted via: Feurio! 1.66 - http://www.feurio.com
#
DISCID=1c027805
DTITLE=Speedball Baby - Speedball Petite
DYEAR=1996
DGENRE=
TTITLE0=Mex Blow-Out
TTITLE1=Crazy Date
TTITLE2=Toss my Salad
TTITLE3=Short Term Loan
TTITLE4=Mex Blow-Out (Reprise)
EXTD=Gravel Records www.speedballbaby.com
EXTT0=
EXTT1=
EXTT2=
EXTT3=
EXTT4=
PLAYORDER=
